<svg id="Layer_1" data-name="Layer 1" xmlns="http://www.w3.org/2000/svg" viewBox="0 0 148.3 30.7"><defs><style>.cls-1{fill:#d9272d}</style></defs><path class="cls-1" d="M116.2.9v4.6h6.1V.9zm0 5.8v24.2h6.1V6.7zM49.4 1.3V21a12.32 12.32 0 0 0 .7 4.4 9.13 9.13 0 0 0 2 3.3 7.75 7.75 0 0 0 3.3 1.9 11.42 11.42 0 0 0 4.6.3v-5.5a4.34 4.34 0 0 1-3.4-.9 4.72 4.72 0 0 1-1.1-3.5v-8.4h4.3V7.2h-4.3v-6h-6.1zM11.1 6.7a12.31 12.31 0 0 0-4.4.8 9.55 9.55 0 0 0-3.3 2.2 11.73 11.73 0 0 0-2.2 3.4 11.58 11.58 0 0 0-.7 4.2V31h6.1V17.1a4.45 4.45 0 0 1 1.3-3.3 4.79 4.79 0 0 1 3.3-1.2 5.36 5.36 0 0 1 2.4.5 3.8 3.8 0 0 1 1.3 1.2 4.71 4.71 0 0 1 .6 1.5 5.74 5.74 0 0 1 .1 1.2v13.8h6.1V17.3A14.34 14.34 0 0 0 21 13a8.13 8.13 0 0 0-2.1-3.3 8.34 8.34 0 0 0-3.3-2.2 12.46 12.46 0 0 0-4.5-.8zM35.8 6.7a10.44 10.44 0 0 0-4.7 1 10.54 10.54 0 0 0-3.9 2.7 11.09 11.09 0 0 0-2.6 4 13.25 13.25 0 0 0 0 9.6 13.13 13.13 0 0 0 2.6 4 11.6 11.6 0 0 0 3.9 2.6 12.36 12.36 0 0 0 4.7 1 11.83 11.83 0 0 0 7.4-2.2 11 11 0 0 0 4-5.9h-6.5a4.1 4.1 0 0 1-2.2 2.1 7.31 7.31 0 0 1-5.8 0 6.74 6.74 0 0 1-2.2-1.9l16.7-7a13 13 0 0 0-1.5-4.2 13 13 0 0 0-2.6-3.1 9.18 9.18 0 0 0-3.5-1.9 8.87 8.87 0 0 0-3.8-.8zm0 5.4a7.63 7.63 0 0 1 2.7.5 5.26 5.26 0 0 1 2 1.6l-11.1 4.7a8.68 8.68 0 0 1 .5-2.8 7.71 7.71 0 0 1 1.4-2.1 5.58 5.58 0 0 1 2-1.4 5.34 5.34 0 0 1 2.5-.5zM111.5 6.7a11.24 11.24 0 0 0-3.2.4 9.24 9.24 0 0 0-3.9 2.1 9 9 0 0 0-2.5 3.5 11.42 11.42 0 0 0-.8 4.6V31h6.1V17.3a4.78 4.78 0 0 1 1.7-3.9 6 6 0 0 1 4.7-.9V6.8c-.7 0-1.4-.1-2.1-.1zM124.4 7.2l8.2 11.5L124 31h7.4l4.9-7.4 4.8 7.4h7.7L140 18.5l8.1-11.3h-7.4l-4.4 6.6-4.2-6.6zM62.3 7.3v13.6a11.76 11.76 0 0 0 .7 4.3 10.78 10.78 0 0 0 2.1 3.4 11.2 11.2 0 0 0 3.3 2.2 12.31 12.31 0 0 0 4.4.8 10 10 0 0 0 4.3-.9 9 9 0 0 0 3.3-2.5 11.09 11.09 0 0 0 3.2 2.5 10.17 10.17 0 0 0 4.4.9 12.73 12.73 0 0 0 4.4-.8 11.2 11.2 0 0 0 3.3-2.2 11.05 11.05 0 0 0 2.2-3.4 11.62 11.62 0 0 0 .8-4.2V7.3h-6.1v13.8a4.45 4.45 0 0 1-1.3 3.3 4.62 4.62 0 0 1-3.3 1.2 5.36 5.36 0 0 1-2.4-.5 3 3 0 0 1-1.3-1.2 4.71 4.71 0 0 1-.6-1.5 6.15 6.15 0 0 1-.1-1.3V7.3h-6.1v13.8a4.3 4.3 0 0 1-4.6 4.5 4.62 4.62 0 0 1-2.3-.5 3 3 0 0 1-1.3-1.2 4.71 4.71 0 0 1-.6-1.5 6.15 6.15 0 0 1-.1-1.3V7.3z" transform="translate(-.5 -.9)"/></svg>